<svg xmlns="http://www.w3.org/2000/svg" version="1.1" xmlns:xlink="http://www.w3.org/1999/xlink" xmlns:svgjs="http://svgjs.dev/svgjs" width="1440" height="560" preserveAspectRatio="none" viewBox="0 0 1440 560"><g mask="url(&quot;#SvgjsMask1004&quot;)" fill="none"><rect width="1440" height="560" x="0" y="0" fill="#0e2a47"></rect><path d="M-103.25 385.96L-103.25 385.96" stroke="rgba(255, 215, 0, 0.17)" stroke-width="1.5"></path><path d="M-103.25 385.96L-96.41 559.53" stroke="rgba(255, 215, 0, 0.17)" stroke-width="1.5"></path><path d="M-103.25 385.96L40.27 523.88" stroke="rgba(255, 215, 0, 0.17)" stroke-width="1.5"></path><path d="M-103.25 385.96L110.93 392.31" stroke="rgba(255, 215, 0, 0.17)" stroke-width="1.5"></path><path d="M-103.25 385.96L-73.2 644.52" stroke="rgba(255, 215, 0, 0.17)" stroke-width="1.5"></path><path d="M-103.25 385.96L256.22 346.97" stroke="rgba(255, 215, 0, 0.17)" stroke-width="1.5"></path><path d="M-103.25 385.96L84.43 704.66" stroke="rgba(255, 215, 0, 0.17)" stroke-width="1.5"></path><path d="M-96.41 559.53L-96.41 559.53" stroke="rgba(255, 215, 0, 0.17)" stroke-width="1.5"></path><path d="M-96.41 559.53L-73.2 644.52" stroke="rgba(255, 215, 0, 0.17)" stroke-width="1.5"></path><path d="M-96.41 559.53L40.27 523.88" stroke="rgba(255, 215, 0, 0.17)" stroke-width="1.5"></path><path d="M-96.41 559.53L84.43 704.66" stroke="rgba(255, 215, 0, 0.17)" stroke-width="1.5"></path><path d="M-96.41 559.53L110.93 392.31" stroke="rgba(255, 215, 0, 0.17)" stroke-width="1.5"></path><path d="M-73.2 644.52L-73.2 644.52" stroke="rgba(255, 215, 0, 0.17)" stroke-width="1.5"></path><path d="M-73.2 644.52L40.27 523.88" stroke="rgba(255, 215, 0, 0.17)" stroke-width="1.5"></path><path d="M-73.2 644.52L84.43 704.66" stroke="rgba(255, 215, 0, 0.17)" stroke-width="1.5"></path><path d="M110.93 392.31L110.93 392.31" stroke="rgba(255, 215, 0, 0.17)" stroke-width="1.5"></path><path d="M110.93 392.31L40.27 523.88" stroke="rgba(255, 215, 0, 0.17)" stroke-width="1.5"></path><path d="M110.93 392.31L256.22 346.97" stroke="rgba(255, 215, 0, 0.17)" stroke-width="1.5"></path><path d="M110.93 392.31L238.53 536.94" stroke="rgba(255, 215, 0, 0.17)" stroke-width="1.5"></path><path d="M40.27 523.88L40.27 523.88" stroke="rgba(255, 215, 0, 0.17)" stroke-width="1.5"></path><path d="M40.27 523.88L84.43 704.66" stroke="rgba(255, 215, 0, 0.17)" stroke-width="1.5"></path><path d="M84.43 704.66L84.43 704.66" stroke="rgba(255, 215, 0, 0.17)" stroke-width="1.5"></path><path d="M84.43 704.66L259.97 701.3" stroke="rgba(255, 215, 0, 0.17)" stroke-width="1.5"></path><path d="M84.43 704.66L238.53 536.94" stroke="rgba(255, 215, 0, 0.17)" stroke-width="1.5"></path><path d="M256.22 346.97L256.22 346.97" stroke="rgba(255, 215, 0, 0.17)" stroke-width="1.5"></path><path d="M256.22 346.97L377.22 384.29" stroke="rgba(255, 215, 0, 0.17)" stroke-width="1.5"></path><path d="M256.22 346.97L238.53 536.94" stroke="rgba(255, 215, 0, 0.17)" stroke-width="1.5"></path><path d="M256.22 346.97L402.33 504.97" stroke="rgba(255, 215, 0, 0.17)" stroke-width="1.5"></path><path d="M256.22 346.97L40.27 523.88" stroke="rgba(255, 215, 0, 0.17)" stroke-width="1.5"></path><path d="M256.22 346.97L542.56 369.51" stroke="rgba(255, 215, 0, 0.17)" stroke-width="1.5"></path><path d="M238.53 536.94L238.53 536.94" stroke="rgba(255, 215, 0, 0.17)" stroke-width="1.5"></path><path d="M238.53 536.94L357.48 648.74" stroke="rgba(255, 215, 0, 0.17)" stroke-width="1.5"></path><path d="M238.53 536.94L259.97 701.3" stroke="rgba(255, 215, 0, 0.17)" stroke-width="1.5"></path><path d="M238.53 536.94L402.33 504.97" stroke="rgba(255, 215, 0, 0.17)" stroke-width="1.5"></path><path d="M259.97 701.3L259.97 701.3" stroke="rgba(255, 215, 0, 0.17)" stroke-width="1.5"></path><path d="M259.97 701.3L357.48 648.74" stroke="rgba(255, 215, 0, 0.17)" stroke-width="1.5"></path><path d="M377.22 384.29L377.22 384.29" stroke="rgba(255, 215, 0, 0.17)" stroke-width="1.5"></path><path d="M377.22 384.29L402.33 504.97" stroke="rgba(255, 215, 0, 0.17)" stroke-width="1.5"></path><path d="M377.22 384.29L542.56 369.51" stroke="rgba(255, 215, 0, 0.17)" stroke-width="1.5"></path><path d="M402.33 504.97L402.33 504.97" stroke="rgba(255, 215, 0, 0.17)" stroke-width="1.5"></path><path d="M402.33 504.97L493.01 516.51" stroke="rgba(255, 215, 0, 0.17)" stroke-width="1.5"></path><path d="M402.33 504.97L357.48 648.74" stroke="rgba(255, 215, 0, 0.17)" stroke-width="1.5"></path><path d="M357.48 648.74L357.48 648.74" stroke="rgba(255, 215, 0, 0.17)" stroke-width="1.5"></path><path d="M357.48 648.74L535.43 679.12" stroke="rgba(255, 215, 0, 0.17)" stroke-width="1.5"></path><path d="M357.48 648.74L493.01 516.51" stroke="rgba(255, 215, 0, 0.17)" stroke-width="1.5"></path><path d="M357.48 648.74L377.22 384.29" stroke="rgba(255, 215, 0, 0.17)" stroke-width="1.5"></path><path d="M542.56 369.51L542.56 369.51" stroke="rgba(255, 215, 0, 0.17)" stroke-width="1.5"></path><path d="M542.56 369.51L493.01 516.51" stroke="rgba(255, 215, 0, 0.17)" stroke-width="1.5"></path><path d="M542.56 369.51L402.33 504.97" stroke="rgba(255, 215, 0, 0.17)" stroke-width="1.5"></path><path d="M493.01 516.51L493.01 516.51" stroke="rgba(255, 215, 0, 0.17)" stroke-width="1.5"></path><path d="M493.01 516.51L535.43 679.12" stroke="rgba(255, 215, 0, 0.17)" stroke-width="1.5"></path><path d="M493.01 516.51L377.22 384.29" stroke="rgba(255, 215, 0, 0.17)" stroke-width="1.5"></path><path d="M493.01 516.51L696.28 523.48" stroke="rgba(255, 215, 0, 0.17)" stroke-width="1.5"></path><path d="M535.43 679.12L535.43 679.12" stroke="rgba(255, 215, 0, 0.17)" stroke-width="1.5"></path><path d="M535.43 679.12L689.34 677.29" stroke="rgba(255, 215, 0, 0.17)" stroke-width="1.5"></path><path d="M535.43 679.12L402.33 504.97" stroke="rgba(255, 215, 0, 0.17)" stroke-width="1.5"></path><path d="M535.43 679.12L696.28 523.48" stroke="rgba(255, 215, 0, 0.17)" stroke-width="1.5"></path><path d="M690.19 204.93L690.19 204.93" stroke="rgba(255, 215, 0, 0.17)" stroke-width="1.5"></path><path d="M690.19 204.93L856.19 235.69" stroke="rgba(255, 215, 0, 0.17)" stroke-width="1.5"></path><path d="M690.19 204.93L847.18 97.66" stroke="rgba(255, 215, 0, 0.17)" stroke-width="1.5"></path><path d="M690.19 204.93L542.56 369.51" stroke="rgba(255, 215, 0, 0.17)" stroke-width="1.5"></path><path d="M696.28 523.48L696.28 523.48" stroke="rgba(255, 215, 0, 0.17)" stroke-width="1.5"></path><path d="M696.28 523.48L689.34 677.29" stroke="rgba(255, 215, 0, 0.17)" stroke-width="1.5"></path><path d="M696.28 523.48L858.37 506.65" stroke="rgba(255, 215, 0, 0.17)" stroke-width="1.5"></path><path d="M696.28 523.48L542.56 369.51" stroke="rgba(255, 215, 0, 0.17)" stroke-width="1.5"></path><path d="M689.34 677.29L689.34 677.29" stroke="rgba(255, 215, 0, 0.17)" stroke-width="1.5"></path><path d="M689.34 677.29L857.22 686.65" stroke="rgba(255, 215, 0, 0.17)" stroke-width="1.5"></path><path d="M689.34 677.29L858.37 506.65" stroke="rgba(255, 215, 0, 0.17)" stroke-width="1.5"></path><path d="M689.34 677.29L493.01 516.51" stroke="rgba(255, 215, 0, 0.17)" stroke-width="1.5"></path><path d="M847.18 97.66L847.18 97.66" stroke="rgba(255, 215, 0, 0.17)" stroke-width="1.5"></path><path d="M847.18 97.66L959.62 77.16" stroke="rgba(255, 215, 0, 0.17)" stroke-width="1.5"></path><path d="M847.18 97.66L856.19 235.69" stroke="rgba(255, 215, 0, 0.17)" stroke-width="1.5"></path><path d="M847.18 97.66L943.34 206.67" stroke="rgba(255, 215, 0, 0.17)" stroke-width="1.5"></path><path d="M847.18 97.66L945.15 -89.26" stroke="rgba(255, 215, 0, 0.17)" stroke-width="1.5"></path><path d="M856.19 235.69L856.19 235.69" stroke="rgba(255, 215, 0, 0.17)" stroke-width="1.5"></path><path d="M856.19 235.69L943.34 206.67" stroke="rgba(255, 215, 0, 0.17)" stroke-width="1.5"></path><path d="M858.37 506.65L858.37 506.65" stroke="rgba(255, 215, 0, 0.17)" stroke-width="1.5"></path><path d="M858.37 506.65L857.22 686.65" stroke="rgba(255, 215, 0, 0.17)" stroke-width="1.5"></path><path d="M858.37 506.65L1009.74 374.75" stroke="rgba(255, 215, 0, 0.17)" stroke-width="1.5"></path><path d="M858.37 506.65L978.02 712.31" stroke="rgba(255, 215, 0, 0.17)" stroke-width="1.5"></path><path d="M857.22 686.65L857.22 686.65" stroke="rgba(255, 215, 0, 0.17)" stroke-width="1.5"></path><path d="M857.22 686.65L978.02 712.31" stroke="rgba(255, 215, 0, 0.17)" stroke-width="1.5"></path><path d="M945.15 -89.26L945.15 -89.26" stroke="rgba(255, 215, 0, 0.17)" stroke-width="1.5"></path><path d="M945.15 -89.26L959.62 77.16" stroke="rgba(255, 215, 0, 0.17)" stroke-width="1.5"></path><path d="M945.15 -89.26L1133.63 -80.85" stroke="rgba(255, 215, 0, 0.17)" stroke-width="1.5"></path><path d="M959.62 77.16L959.62 77.16" stroke="rgba(255, 215, 0, 0.17)" stroke-width="1.5"></path><path d="M959.62 77.16L1087.98 96.62" stroke="rgba(255, 215, 0, 0.17)" stroke-width="1.5"></path><path d="M959.62 77.16L943.34 206.67" stroke="rgba(255, 215, 0, 0.17)" stroke-width="1.5"></path><path d="M943.34 206.67L943.34 206.67" stroke="rgba(255, 215, 0, 0.17)" stroke-width="1.5"></path><path d="M943.34 206.67L1122.82 198.9" stroke="rgba(255, 215, 0, 0.17)" stroke-width="1.5"></path><path d="M943.34 206.67L1009.74 374.75" stroke="rgba(255, 215, 0, 0.17)" stroke-width="1.5"></path><path d="M1009.74 374.75L1009.74 374.75" stroke="rgba(255, 215, 0, 0.17)" stroke-width="1.5"></path><path d="M1009.74 374.75L1108.07 495.77" stroke="rgba(255, 215, 0, 0.17)" stroke-width="1.5"></path><path d="M978.02 712.31L978.02 712.31" stroke="rgba(255, 215, 0, 0.17)" stroke-width="1.5"></path><path d="M1133.63 -80.85L1133.63 -80.85" stroke="rgba(255, 215, 0, 0.17)" stroke-width="1.5"></path><path d="M1133.63 -80.85L1286.6 -82.34" stroke="rgba(255, 215, 0, 0.17)" stroke-width="1.5"></path><path d="M1133.63 -80.85L1244.63 38.48" stroke="rgba(255, 215, 0, 0.17)" stroke-width="1.5"></path><path d="M1133.63 -80.85L1087.98 96.62" stroke="rgba(255, 215, 0, 0.17)" stroke-width="1.5"></path><path d="M1133.63 -80.85L959.62 77.16" stroke="rgba(255, 215, 0, 0.17)" stroke-width="1.5"></path><path d="M1087.98 96.62L1087.98 96.62" stroke="rgba(255, 215, 0, 0.17)" stroke-width="1.5"></path><path d="M1087.98 96.62L1122.82 198.9" stroke="rgba(255, 215, 0, 0.17)" stroke-width="1.5"></path><path d="M1087.98 96.62L1244.63 38.48" stroke="rgba(255, 215, 0, 0.17)" stroke-width="1.5"></path><path d="M1122.82 198.9L1122.82 198.9" stroke="rgba(255, 215, 0, 0.17)" stroke-width="1.5"></path><path d="M1122.82 198.9L1300.43 220.73" stroke="rgba(255, 215, 0, 0.17)" stroke-width="1.5"></path><path d="M1108.07 495.77L1108.07 495.77" stroke="rgba(255, 215, 0, 0.17)" stroke-width="1.5"></path><path d="M1108.07 495.77L1271.23 556.15" stroke="rgba(255, 215, 0, 0.17)" stroke-width="1.5"></path><path d="M1108.07 495.77L1284.89 362.67" stroke="rgba(255, 215, 0, 0.17)" stroke-width="1.5"></path><path d="M1108.07 495.77L858.37 506.65" stroke="rgba(255, 215, 0, 0.17)" stroke-width="1.5"></path><path d="M1108.07 495.77L978.02 712.31" stroke="rgba(255, 215, 0, 0.17)" stroke-width="1.5"></path><path d="M1108.07 495.77L1281.56 707.55" stroke="rgba(255, 215, 0, 0.17)" stroke-width="1.5"></path><path d="M1286.6 -82.34L1286.6 -82.34" stroke="rgba(255, 215, 0, 0.17)" stroke-width="1.5"></path><path d="M1286.6 -82.34L1244.63 38.48" stroke="rgba(255, 215, 0, 0.17)" stroke-width="1.5"></path><path d="M1286.6 -82.34L1430.44 -44.64" stroke="rgba(255, 215, 0, 0.17)" stroke-width="1.5"></path><path d="M1286.6 -82.34L1455.97 100.84" stroke="rgba(255, 215, 0, 0.17)" stroke-width="1.5"></path><path d="M1286.6 -82.34L1087.98 96.62" stroke="rgba(255, 215, 0, 0.17)" stroke-width="1.5"></path><path d="M1286.6 -82.34L1568.16 -84.92" stroke="rgba(255, 215, 0, 0.17)" stroke-width="1.5"></path><path d="M1244.63 38.48L1244.63 38.48" stroke="rgba(255, 215, 0, 0.17)" stroke-width="1.5"></path><path d="M1244.63 38.48L1300.43 220.73" stroke="rgba(255, 215, 0, 0.17)" stroke-width="1.5"></path><path d="M1244.63 38.48L1122.82 198.9" stroke="rgba(255, 215, 0, 0.17)" stroke-width="1.5"></path><path d="M1244.63 38.48L1430.44 -44.64" stroke="rgba(255, 215, 0, 0.17)" stroke-width="1.5"></path><path d="M1300.43 220.73L1300.43 220.73" stroke="rgba(255, 215, 0, 0.17)" stroke-width="1.5"></path><path d="M1300.43 220.73L1284.89 362.67" stroke="rgba(255, 215, 0, 0.17)" stroke-width="1.5"></path><path d="M1300.43 220.73L1451.73 248.1" stroke="rgba(255, 215, 0, 0.17)" stroke-width="1.5"></path><path d="M1300.43 220.73L1455.97 100.84" stroke="rgba(255, 215, 0, 0.17)" stroke-width="1.5"></path><path d="M1284.89 362.67L1284.89 362.67" stroke="rgba(255, 215, 0, 0.17)" stroke-width="1.5"></path><path d="M1284.89 362.67L1434.89 366.98" stroke="rgba(255, 215, 0, 0.17)" stroke-width="1.5"></path><path d="M1284.89 362.67L1271.23 556.15" stroke="rgba(255, 215, 0, 0.17)" stroke-width="1.5"></path><path d="M1284.89 362.67L1451.73 248.1" stroke="rgba(255, 215, 0, 0.17)" stroke-width="1.5"></path><path d="M1271.23 556.15L1271.23 556.15" stroke="rgba(255, 215, 0, 0.17)" stroke-width="1.5"></path><path d="M1271.23 556.15L1404.3 536.23" stroke="rgba(255, 215, 0, 0.17)" stroke-width="1.5"></path><path d="M1271.23 556.15L1281.56 707.55" stroke="rgba(255, 215, 0, 0.17)" stroke-width="1.5"></path><path d="M1281.56 707.55L1281.56 707.55" stroke="rgba(255, 215, 0, 0.17)" stroke-width="1.5"></path><path d="M1430.44 -44.64L1430.44 -44.64" stroke="rgba(255, 215, 0, 0.17)" stroke-width="1.5"></path><path d="M1430.44 -44.64L1568.16 -84.92" stroke="rgba(255, 215, 0, 0.17)" stroke-width="1.5"></path><path d="M1430.44 -44.64L1455.97 100.84" stroke="rgba(255, 215, 0, 0.17)" stroke-width="1.5"></path><path d="M1430.44 -44.64L1594.5 51.93" stroke="rgba(255, 215, 0, 0.17)" stroke-width="1.5"></path><path d="M1455.97 100.84L1455.97 100.84" stroke="rgba(255, 215, 0, 0.17)" stroke-width="1.5"></path><path d="M1455.97 100.84L1594.5 51.93" stroke="rgba(255, 215, 0, 0.17)" stroke-width="1.5"></path><path d="M1455.97 100.84L1451.73 248.1" stroke="rgba(255, 215, 0, 0.17)" stroke-width="1.5"></path><path d="M1455.97 100.84L1559.19 236.69" stroke="rgba(255, 215, 0, 0.17)" stroke-width="1.5"></path><path d="M1451.73 248.1L1451.73 248.1" stroke="rgba(255, 215, 0, 0.17)" stroke-width="1.5"></path><path d="M1451.73 248.1L1559.19 236.69" stroke="rgba(255, 215, 0, 0.17)" stroke-width="1.5"></path><path d="M1451.73 248.1L1434.89 366.98" stroke="rgba(255, 215, 0, 0.17)" stroke-width="1.5"></path><path d="M1451.73 248.1L1542.76 364.3" stroke="rgba(255, 215, 0, 0.17)" stroke-width="1.5"></path><path d="M1434.89 366.98L1434.89 366.98" stroke="rgba(255, 215, 0, 0.17)" stroke-width="1.5"></path><path d="M1434.89 366.98L1542.76 364.3" stroke="rgba(255, 215, 0, 0.17)" stroke-width="1.5"></path><path d="M1434.89 366.98L1404.3 536.23" stroke="rgba(255, 215, 0, 0.17)" stroke-width="1.5"></path><path d="M1434.89 366.98L1559.19 236.69" stroke="rgba(255, 215, 0, 0.17)" stroke-width="1.5"></path><path d="M1404.3 536.23L1404.3 536.23" stroke="rgba(255, 215, 0, 0.17)" stroke-width="1.5"></path><path d="M1404.3 536.23L1454.74 693.53" stroke="rgba(255, 215, 0, 0.17)" stroke-width="1.5"></path><path d="M1404.3 536.23L1284.89 362.67" stroke="rgba(255, 215, 0, 0.17)" stroke-width="1.5"></path><path d="M1404.3 536.23L1281.56 707.55" stroke="rgba(255, 215, 0, 0.17)" stroke-width="1.5"></path><path d="M1454.74 693.53L1454.74 693.53" stroke="rgba(255, 215, 0, 0.17)" stroke-width="1.5"></path><path d="M1454.74 693.53L1587.22 657.93" stroke="rgba(255, 215, 0, 0.17)" stroke-width="1.5"></path><path d="M1454.74 693.53L1281.56 707.55" stroke="rgba(255, 215, 0, 0.17)" stroke-width="1.5"></path><path d="M1454.74 693.53L1271.23 556.15" stroke="rgba(255, 215, 0, 0.17)" stroke-width="1.5"></path><path d="M1454.74 693.53L1434.89 366.98" stroke="rgba(255, 215, 0, 0.17)" stroke-width="1.5"></path><path d="M1454.74 693.53L1542.76 364.3" stroke="rgba(255, 215, 0, 0.17)" stroke-width="1.5"></path><path d="M1568.16 -84.92L1568.16 -84.92" stroke="rgba(255, 215, 0, 0.17)" stroke-width="1.5"></path><path d="M1568.16 -84.92L1594.5 51.93" stroke="rgba(255, 215, 0, 0.17)" stroke-width="1.5"></path><path d="M1568.16 -84.92L1455.97 100.84" stroke="rgba(255, 215, 0, 0.17)" stroke-width="1.5"></path><path d="M1594.5 51.93L1594.5 51.93" stroke="rgba(255, 215, 0, 0.17)" stroke-width="1.5"></path><path d="M1594.5 51.93L1559.19 236.69" stroke="rgba(255, 215, 0, 0.17)" stroke-width="1.5"></path><path d="M1594.5 51.93L1451.73 248.1" stroke="rgba(255, 215, 0, 0.17)" stroke-width="1.5"></path><path d="M1559.19 236.69L1559.19 236.69" stroke="rgba(255, 215, 0, 0.17)" stroke-width="1.5"></path><path d="M1559.19 236.69L1542.76 364.3" stroke="rgba(255, 215, 0, 0.17)" stroke-width="1.5"></path><path d="M1542.76 364.3L1542.76 364.3" stroke="rgba(255, 215, 0, 0.17)" stroke-width="1.5"></path><path d="M1587.22 657.93L1587.22 657.93" stroke="rgba(255, 215, 0, 0.17)" stroke-width="1.5"></path><path d="M1587.22 657.93L1404.3 536.23" stroke="rgba(255, 215, 0, 0.17)" stroke-width="1.5"></path><path d="M1587.22 657.93L1542.76 364.3" stroke="rgba(255, 215, 0, 0.17)" stroke-width="1.5"></path><path d="M1587.22 657.93L1281.56 707.55" stroke="rgba(255, 215, 0, 0.17)" stroke-width="1.5"></path><circle r="5" cx="-103.25" cy="385.96" fill="rgba(255, 215, 0, 0.17)"></circle><circle r="5" cx="-96.41" cy="559.53" fill="rgba(255, 215, 0, 0.17)"></circle><circle r="5" cx="-73.2" cy="644.52" fill="rgba(255, 215, 0, 0.17)"></circle><circle r="5" cx="110.93" cy="392.31" fill="rgba(255, 215, 0, 0.17)"></circle><circle r="5" cx="40.27" cy="523.88" fill="rgba(255, 215, 0, 0.17)"></circle><circle r="5" cx="84.43" cy="704.66" fill="rgba(255, 215, 0, 0.17)"></circle><circle r="5" cx="256.22" cy="346.97" fill="rgba(255, 215, 0, 0.17)"></circle><circle r="5" cx="238.53" cy="536.94" fill="rgba(255, 215, 0, 0.17)"></circle><circle r="5" cx="259.97" cy="701.3" fill="rgba(255, 215, 0, 0.17)"></circle><circle r="5" cx="377.22" cy="384.29" fill="rgba(255, 215, 0, 0.17)"></circle><circle r="5" cx="402.33" cy="504.97" fill="rgba(255, 215, 0, 0.17)"></circle><circle r="5" cx="357.48" cy="648.74" fill="rgba(255, 215, 0, 0.17)"></circle><circle r="5" cx="542.56" cy="369.51" fill="rgba(255, 215, 0, 0.17)"></circle><circle r="5" cx="493.01" cy="516.51" fill="rgba(255, 215, 0, 0.17)"></circle><circle r="5" cx="535.43" cy="679.12" fill="rgba(255, 215, 0, 0.17)"></circle><circle r="5" cx="690.19" cy="204.93" fill="rgba(255, 215, 0, 0.17)"></circle><circle r="5" cx="696.28" cy="523.48" fill="rgba(255, 215, 0, 0.17)"></circle><circle r="5" cx="689.34" cy="677.29" fill="rgba(255, 215, 0, 0.17)"></circle><circle r="5" cx="847.18" cy="97.66" fill="rgba(255, 215, 0, 0.17)"></circle><circle r="5" cx="856.19" cy="235.69" fill="rgba(255, 215, 0, 0.17)"></circle><circle r="5" cx="858.37" cy="506.65" fill="rgba(255, 215, 0, 0.17)"></circle><circle r="5" cx="857.22" cy="686.65" fill="rgba(255, 215, 0, 0.17)"></circle><circle r="5" cx="945.15" cy="-89.26" fill="rgba(255, 215, 0, 0.17)"></circle><circle r="5" cx="959.62" cy="77.16" fill="rgba(255, 215, 0, 0.17)"></circle><circle r="5" cx="943.34" cy="206.67" fill="rgba(255, 215, 0, 0.17)"></circle><circle r="5" cx="1009.74" cy="374.75" fill="rgba(255, 215, 0, 0.17)"></circle><circle r="5" cx="978.02" cy="712.31" fill="rgba(255, 215, 0, 0.17)"></circle><circle r="5" cx="1133.63" cy="-80.85" fill="rgba(255, 215, 0, 0.17)"></circle><circle r="5" cx="1087.98" cy="96.62" fill="rgba(255, 215, 0, 0.17)"></circle><circle r="5" cx="1122.82" cy="198.9" fill="rgba(255, 215, 0, 0.17)"></circle><circle r="5" cx="1108.07" cy="495.77" fill="rgba(255, 215, 0, 0.17)"></circle><circle r="5" cx="1286.6" cy="-82.34" fill="rgba(255, 215, 0, 0.17)"></circle><circle r="5" cx="1244.63" cy="38.48" fill="rgba(255, 215, 0, 0.17)"></circle><circle r="5" cx="1300.43" cy="220.73" fill="rgba(255, 215, 0, 0.17)"></circle><circle r="5" cx="1284.89" cy="362.67" fill="rgba(255, 215, 0, 0.17)"></circle><circle r="5" cx="1271.23" cy="556.15" fill="rgba(255, 215, 0, 0.17)"></circle><circle r="5" cx="1281.56" cy="707.55" fill="rgba(255, 215, 0, 0.17)"></circle><circle r="5" cx="1430.44" cy="-44.64" fill="rgba(255, 215, 0, 0.17)"></circle><circle r="5" cx="1455.97" cy="100.84" fill="rgba(255, 215, 0, 0.17)"></circle><circle r="5" cx="1451.73" cy="248.1" fill="rgba(255, 215, 0, 0.17)"></circle><circle r="5" cx="1434.89" cy="366.98" fill="rgba(255, 215, 0, 0.17)"></circle><circle r="5" cx="1404.3" cy="536.23" fill="rgba(255, 215, 0, 0.17)"></circle><circle r="5" cx="1454.74" cy="693.53" fill="rgba(255, 215, 0, 0.17)"></circle><circle r="5" cx="1568.16" cy="-84.92" fill="rgba(255, 215, 0, 0.17)"></circle><circle r="5" cx="1594.5" cy="51.93" fill="rgba(255, 215, 0, 0.17)"></circle><circle r="5" cx="1559.19" cy="236.69" fill="rgba(255, 215, 0, 0.17)"></circle><circle r="5" cx="1542.76" cy="364.3" fill="rgba(255, 215, 0, 0.17)"></circle><circle r="5" cx="1587.22" cy="657.93" fill="rgba(255, 215, 0, 0.17)"></circle><path d="M371.39 540.04L371.39 540.04" stroke="hsl(50.60000000000002, 100%, 65%)" stroke-width="1.5"></path><path d="M371.39 540.04L349.44 647.82" stroke="hsl(50.60000000000002, 100%, 65%)" stroke-width="1.5"></path><path d="M371.39 540.04L535.86 514.28" stroke="hsl(50.60000000000002, 100%, 65%)" stroke-width="1.5"></path><path d="M371.39 540.04L241.33 668.57" stroke="hsl(50.60000000000002, 100%, 65%)" stroke-width="1.5"></path><path d="M371.39 540.04L104.13 670.44" stroke="hsl(50.60000000000002, 100%, 65%)" stroke-width="1.5"></path><path d="M371.39 540.04L695.91 516.03" stroke="hsl(50.60000000000002, 100%, 65%)" stroke-width="1.5"></path><path d="M980.22 556.33L980.22 556.33" stroke="hsl(50.60000000000002, 100%, 65%)" stroke-width="1.5"></path><path d="M980.22 556.33L960.49 709.57" stroke="hsl(50.60000000000002, 100%, 65%)" stroke-width="1.5"></path><path d="M980.22 556.33L811.97 559.32" stroke="hsl(50.60000000000002, 100%, 65%)" stroke-width="1.5"></path><path d="M980.22 556.33L1145.03 520.74" stroke="hsl(50.60000000000002, 100%, 65%)" stroke-width="1.5"></path><path d="M980.22 556.33L984.31 386.34" stroke="hsl(50.60000000000002, 100%, 65%)" stroke-width="1.5"></path><path d="M980.22 556.33L853.59 670.6" stroke="hsl(50.60000000000002, 100%, 65%)" stroke-width="1.5"></path><path d="M1237.6 100.68L1237.6 100.68" stroke="hsl(50.60000000000002, 100%, 65%)" stroke-width="1.5"></path><path d="M1237.6 100.68L1264.65 208.59" stroke="hsl(50.60000000000002, 100%, 65%)" stroke-width="1.5"></path><path d="M1237.6 100.68L1244.07 -47.77" stroke="hsl(50.60000000000002, 100%, 65%)" stroke-width="1.5"></path><path d="M1237.6 100.68L1408.09 49.86" stroke="hsl(50.60000000000002, 100%, 65%)" stroke-width="1.5"></path><path d="M1237.6 100.68L1099.13 250.91" stroke="hsl(50.60000000000002, 100%, 65%)" stroke-width="1.5"></path><path d="M1237.6 100.68L1404.41 220.23" stroke="hsl(50.60000000000002, 100%, 65%)" stroke-width="1.5"></path><path d="M1427.21 -83.09L1427.21 -83.09" stroke="hsl(50.60000000000002, 100%, 65%)" stroke-width="1.5"></path><path d="M1427.21 -83.09L1559.12 -90.77" stroke="hsl(50.60000000000002, 100%, 65%)" stroke-width="1.5"></path><path d="M1427.21 -83.09L1408.09 49.86" stroke="hsl(50.60000000000002, 100%, 65%)" stroke-width="1.5"></path><path d="M1427.21 -83.09L1244.07 -47.77" stroke="hsl(50.60000000000002, 100%, 65%)" stroke-width="1.5"></path><path d="M1559.12 -90.77L1559.12 -90.77" stroke="hsl(50.60000000000002, 100%, 65%)" stroke-width="1.5"></path><path d="M1559.12 -90.77L1594.64 56.05" stroke="hsl(50.60000000000002, 100%, 65%)" stroke-width="1.5"></path><path d="M1559.12 -90.77L1408.09 49.86" stroke="hsl(50.60000000000002, 100%, 65%)" stroke-width="1.5"></path><path d="M1559.12 -90.77L1555.18 215.32" stroke="hsl(50.60000000000002, 100%, 65%)" stroke-width="1.5"></path><path d="M1559.12 -90.77L1244.07 -47.77" stroke="hsl(50.60000000000002, 100%, 65%)" stroke-width="1.5"></path><path d="M1559.12 -90.77L1404.41 220.23" stroke="hsl(50.60000000000002, 100%, 65%)" stroke-width="1.5"></path><path d="M1564.29 650.85L1564.29 650.85" stroke="hsl(50.60000000000002, 100%, 65%)" stroke-width="1.5"></path><path d="M1564.29 650.85L1553.75 531.21" stroke="hsl(50.60000000000002, 100%, 65%)" stroke-width="1.5"></path><path d="M1564.29 650.85L1410.19 682.92" stroke="hsl(50.60000000000002, 100%, 65%)" stroke-width="1.5"></path><path d="M-65.64 517.77L-65.64 517.77" stroke="hsl(50.60000000000002, 100%, 65%)" stroke-width="1.5"></path><path d="M-65.64 517.77L-49.78 650" stroke="hsl(50.60000000000002, 100%, 65%)" stroke-width="1.5"></path><path d="M-65.64 517.77L104.13 670.44" stroke="hsl(50.60000000000002, 100%, 65%)" stroke-width="1.5"></path><path d="M-49.78 650L-49.78 650" stroke="hsl(50.60000000000002, 100%, 65%)" stroke-width="1.5"></path><path d="M-49.78 650L104.13 670.44" stroke="hsl(50.60000000000002, 100%, 65%)" stroke-width="1.5"></path><path d="M-49.78 650L241.33 668.57" stroke="hsl(50.60000000000002, 100%, 65%)" stroke-width="1.5"></path><path d="M-49.78 650L349.44 647.82" stroke="hsl(50.60000000000002, 100%, 65%)" stroke-width="1.5"></path><path d="M104.13 670.44L104.13 670.44" stroke="hsl(50.60000000000002, 100%, 65%)" stroke-width="1.5"></path><path d="M104.13 670.44L241.33 668.57" stroke="hsl(50.60000000000002, 100%, 65%)" stroke-width="1.5"></path><path d="M241.33 668.57L241.33 668.57" stroke="hsl(50.60000000000002, 100%, 65%)" stroke-width="1.5"></path><path d="M241.33 668.57L349.44 647.82" stroke="hsl(50.60000000000002, 100%, 65%)" stroke-width="1.5"></path><path d="M349.44 647.82L349.44 647.82" stroke="hsl(50.60000000000002, 100%, 65%)" stroke-width="1.5"></path><path d="M349.44 647.82L535.86 514.28" stroke="hsl(50.60000000000002, 100%, 65%)" stroke-width="1.5"></path><path d="M349.44 647.82L104.13 670.44" stroke="hsl(50.60000000000002, 100%, 65%)" stroke-width="1.5"></path><path d="M535.86 514.28L535.86 514.28" stroke="hsl(50.60000000000002, 100%, 65%)" stroke-width="1.5"></path><path d="M535.86 514.28L695.91 516.03" stroke="hsl(50.60000000000002, 100%, 65%)" stroke-width="1.5"></path><path d="M535.86 514.28L706.29 663.96" stroke="hsl(50.60000000000002, 100%, 65%)" stroke-width="1.5"></path><path d="M535.86 514.28L811.97 559.32" stroke="hsl(50.60000000000002, 100%, 65%)" stroke-width="1.5"></path><path d="M535.86 514.28L821.47 380.97" stroke="hsl(50.60000000000002, 100%, 65%)" stroke-width="1.5"></path><path d="M695.91 516.03L695.91 516.03" stroke="hsl(50.60000000000002, 100%, 65%)" stroke-width="1.5"></path><path d="M695.91 516.03L811.97 559.32" stroke="hsl(50.60000000000002, 100%, 65%)" stroke-width="1.5"></path><path d="M695.91 516.03L706.29 663.96" stroke="hsl(50.60000000000002, 100%, 65%)" stroke-width="1.5"></path><path d="M695.91 516.03L821.47 380.97" stroke="hsl(50.60000000000002, 100%, 65%)" stroke-width="1.5"></path><path d="M695.91 516.03L853.59 670.6" stroke="hsl(50.60000000000002, 100%, 65%)" stroke-width="1.5"></path><path d="M695.91 516.03L980.22 556.33" stroke="hsl(50.60000000000002, 100%, 65%)" stroke-width="1.5"></path><path d="M706.29 663.96L706.29 663.96" stroke="hsl(50.60000000000002, 100%, 65%)" stroke-width="1.5"></path><path d="M706.29 663.96L853.59 670.6" stroke="hsl(50.60000000000002, 100%, 65%)" stroke-width="1.5"></path><path d="M706.29 663.96L811.97 559.32" stroke="hsl(50.60000000000002, 100%, 65%)" stroke-width="1.5"></path><path d="M821.47 380.97L821.47 380.97" stroke="hsl(50.60000000000002, 100%, 65%)" stroke-width="1.5"></path><path d="M821.47 380.97L984.31 386.34" stroke="hsl(50.60000000000002, 100%, 65%)" stroke-width="1.5"></path><path d="M821.47 380.97L811.97 559.32" stroke="hsl(50.60000000000002, 100%, 65%)" stroke-width="1.5"></path><path d="M811.97 559.32L811.97 559.32" stroke="hsl(50.60000000000002, 100%, 65%)" stroke-width="1.5"></path><path d="M811.97 559.32L853.59 670.6" stroke="hsl(50.60000000000002, 100%, 65%)" stroke-width="1.5"></path><path d="M811.97 559.32L960.49 709.57" stroke="hsl(50.60000000000002, 100%, 65%)" stroke-width="1.5"></path><path d="M853.59 670.6L853.59 670.6" stroke="hsl(50.60000000000002, 100%, 65%)" stroke-width="1.5"></path><path d="M853.59 670.6L960.49 709.57" stroke="hsl(50.60000000000002, 100%, 65%)" stroke-width="1.5"></path><path d="M984.31 386.34L984.31 386.34" stroke="hsl(50.60000000000002, 100%, 65%)" stroke-width="1.5"></path><path d="M984.31 386.34L1139.85 346.73" stroke="hsl(50.60000000000002, 100%, 65%)" stroke-width="1.5"></path><path d="M960.49 709.57L960.49 709.57" stroke="hsl(50.60000000000002, 100%, 65%)" stroke-width="1.5"></path><path d="M1099.13 250.91L1099.13 250.91" stroke="hsl(50.60000000000002, 100%, 65%)" stroke-width="1.5"></path><path d="M1099.13 250.91L1139.85 346.73" stroke="hsl(50.60000000000002, 100%, 65%)" stroke-width="1.5"></path><path d="M1099.13 250.91L1264.65 208.59" stroke="hsl(50.60000000000002, 100%, 65%)" stroke-width="1.5"></path><path d="M1139.85 346.73L1139.85 346.73" stroke="hsl(50.60000000000002, 100%, 65%)" stroke-width="1.5"></path><path d="M1139.85 346.73L1245.97 385.22" stroke="hsl(50.60000000000002, 100%, 65%)" stroke-width="1.5"></path><path d="M1145.03 520.74L1145.03 520.74" stroke="hsl(50.60000000000002, 100%, 65%)" stroke-width="1.5"></path><path d="M1145.03 520.74L1272.32 521.83" stroke="hsl(50.60000000000002, 100%, 65%)" stroke-width="1.5"></path><path d="M1145.03 520.74L1155.44 680.04" stroke="hsl(50.60000000000002, 100%, 65%)" stroke-width="1.5"></path><path d="M1145.03 520.74L1245.97 385.22" stroke="hsl(50.60000000000002, 100%, 65%)" stroke-width="1.5"></path><path d="M1145.03 520.74L1139.85 346.73" stroke="hsl(50.60000000000002, 100%, 65%)" stroke-width="1.5"></path><path d="M1155.44 680.04L1155.44 680.04" stroke="hsl(50.60000000000002, 100%, 65%)" stroke-width="1.5"></path><path d="M1155.44 680.04L1306.26 643.49" stroke="hsl(50.60000000000002, 100%, 65%)" stroke-width="1.5"></path><path d="M1155.44 680.04L1272.32 521.83" stroke="hsl(50.60000000000002, 100%, 65%)" stroke-width="1.5"></path><path d="M1155.44 680.04L960.49 709.57" stroke="hsl(50.60000000000002, 100%, 65%)" stroke-width="1.5"></path><path d="M1244.07 -47.77L1244.07 -47.77" stroke="hsl(50.60000000000002, 100%, 65%)" stroke-width="1.5"></path><path d="M1244.07 -47.77L1408.09 49.86" stroke="hsl(50.60000000000002, 100%, 65%)" stroke-width="1.5"></path><path d="M1244.07 -47.77L1264.65 208.59" stroke="hsl(50.60000000000002, 100%, 65%)" stroke-width="1.5"></path><path d="M1244.07 -47.77L1404.41 220.23" stroke="hsl(50.60000000000002, 100%, 65%)" stroke-width="1.5"></path><path d="M1264.65 208.59L1264.65 208.59" stroke="hsl(50.60000000000002, 100%, 65%)" stroke-width="1.5"></path><path d="M1264.65 208.59L1404.41 220.23" stroke="hsl(50.60000000000002, 100%, 65%)" stroke-width="1.5"></path><path d="M1264.65 208.59L1245.97 385.22" stroke="hsl(50.60000000000002, 100%, 65%)" stroke-width="1.5"></path><path d="M1245.97 385.22L1245.97 385.22" stroke="hsl(50.60000000000002, 100%, 65%)" stroke-width="1.5"></path><path d="M1245.97 385.22L1272.32 521.83" stroke="hsl(50.60000000000002, 100%, 65%)" stroke-width="1.5"></path><path d="M1245.97 385.22L1418.47 355.95" stroke="hsl(50.60000000000002, 100%, 65%)" stroke-width="1.5"></path><path d="M1272.32 521.83L1272.32 521.83" stroke="hsl(50.60000000000002, 100%, 65%)" stroke-width="1.5"></path><path d="M1272.32 521.83L1306.26 643.49" stroke="hsl(50.60000000000002, 100%, 65%)" stroke-width="1.5"></path><path d="M1272.32 521.83L1430.35 528.52" stroke="hsl(50.60000000000002, 100%, 65%)" stroke-width="1.5"></path><path d="M1272.32 521.83L1410.19 682.92" stroke="hsl(50.60000000000002, 100%, 65%)" stroke-width="1.5"></path><path d="M1306.26 643.49L1306.26 643.49" stroke="hsl(50.60000000000002, 100%, 65%)" stroke-width="1.5"></path><path d="M1306.26 643.49L1410.19 682.92" stroke="hsl(50.60000000000002, 100%, 65%)" stroke-width="1.5"></path><path d="M1306.26 643.49L1430.35 528.52" stroke="hsl(50.60000000000002, 100%, 65%)" stroke-width="1.5"></path><path d="M1408.09 49.86L1408.09 49.86" stroke="hsl(50.60000000000002, 100%, 65%)" stroke-width="1.5"></path><path d="M1408.09 49.86L1404.41 220.23" stroke="hsl(50.60000000000002, 100%, 65%)" stroke-width="1.5"></path><path d="M1408.09 49.86L1594.64 56.05" stroke="hsl(50.60000000000002, 100%, 65%)" stroke-width="1.5"></path><path d="M1404.41 220.23L1404.41 220.23" stroke="hsl(50.60000000000002, 100%, 65%)" stroke-width="1.5"></path><path d="M1404.41 220.23L1418.47 355.95" stroke="hsl(50.60000000000002, 100%, 65%)" stroke-width="1.5"></path><path d="M1404.41 220.23L1555.18 215.32" stroke="hsl(50.60000000000002, 100%, 65%)" stroke-width="1.5"></path><path d="M1418.47 355.95L1418.47 355.95" stroke="hsl(50.60000000000002, 100%, 65%)" stroke-width="1.5"></path><path d="M1418.47 355.95L1430.35 528.52" stroke="hsl(50.60000000000002, 100%, 65%)" stroke-width="1.5"></path><path d="M1418.47 355.95L1599.75 358.92" stroke="hsl(50.60000000000002, 100%, 65%)" stroke-width="1.5"></path><path d="M1430.35 528.52L1430.35 528.52" stroke="hsl(50.60000000000002, 100%, 65%)" stroke-width="1.5"></path><path d="M1430.35 528.52L1553.75 531.21" stroke="hsl(50.60000000000002, 100%, 65%)" stroke-width="1.5"></path><path d="M1430.35 528.52L1410.19 682.92" stroke="hsl(50.60000000000002, 100%, 65%)" stroke-width="1.5"></path><path d="M1410.19 682.92L1410.19 682.92" stroke="hsl(50.60000000000002, 100%, 65%)" stroke-width="1.5"></path><path d="M1410.19 682.92L1553.75 531.21" stroke="hsl(50.60000000000002, 100%, 65%)" stroke-width="1.5"></path><path d="M1410.19 682.92L1155.44 680.04" stroke="hsl(50.60000000000002, 100%, 65%)" stroke-width="1.5"></path><path d="M1594.64 56.05L1594.64 56.05" stroke="hsl(50.60000000000002, 100%, 65%)" stroke-width="1.5"></path><path d="M1594.64 56.05L1555.18 215.32" stroke="hsl(50.60000000000002, 100%, 65%)" stroke-width="1.5"></path><path d="M1555.18 215.32L1555.18 215.32" stroke="hsl(50.60000000000002, 100%, 65%)" stroke-width="1.5"></path><path d="M1555.18 215.32L1599.75 358.92" stroke="hsl(50.60000000000002, 100%, 65%)" stroke-width="1.5"></path><path d="M1555.18 215.32L1418.47 355.95" stroke="hsl(50.60000000000002, 100%, 65%)" stroke-width="1.5"></path><path d="M1599.75 358.92L1599.75 358.92" stroke="hsl(50.60000000000002, 100%, 65%)" stroke-width="1.5"></path><path d="M1599.75 358.92L1553.75 531.21" stroke="hsl(50.60000000000002, 100%, 65%)" stroke-width="1.5"></path><path d="M1553.75 531.21L1553.75 531.21" stroke="hsl(50.60000000000002, 100%, 65%)" stroke-width="1.5"></path><circle r="25" cx="371.39" cy="540.04" fill="url(&quot;#SvgjsRadialGradient1005&quot;)"></circle><circle r="25" cx="980.22" cy="556.33" fill="url(&quot;#SvgjsRadialGradient1005&quot;)"></circle><circle r="25" cx="1237.6" cy="100.68" fill="url(&quot;#SvgjsRadialGradient1005&quot;)"></circle><circle r="25" cx="1427.21" cy="-83.09" fill="url(&quot;#SvgjsRadialGradient1005&quot;)"></circle><circle r="25" cx="1559.12" cy="-90.77" fill="url(&quot;#SvgjsRadialGradient1005&quot;)"></circle><circle r="25" cx="1564.29" cy="650.85" fill="url(&quot;#SvgjsRadialGradient1005&quot;)"></circle><circle r="5" cx="-65.64" cy="517.77" fill="#ffeb80"></circle><circle r="5" cx="-49.78" cy="650" fill="#ffeb80"></circle><circle r="5" cx="104.13" cy="670.44" fill="#ffeb80"></circle><circle r="5" cx="241.33" cy="668.57" fill="#ffeb80"></circle><circle r="5" cx="349.44" cy="647.82" fill="#ffeb80"></circle><circle r="5" cx="535.86" cy="514.28" fill="#ffeb80"></circle><circle r="5" cx="695.91" cy="516.03" fill="#ffeb80"></circle><circle r="5" cx="706.29" cy="663.96" fill="#ffeb80"></circle><circle r="5" cx="821.47" cy="380.97" fill="#ffeb80"></circle><circle r="5" cx="811.97" cy="559.32" fill="#ffeb80"></circle><circle r="5" cx="853.59" cy="670.6" fill="#ffeb80"></circle><circle r="5" cx="984.31" cy="386.34" fill="#ffeb80"></circle><circle r="5" cx="960.49" cy="709.57" fill="#ffeb80"></circle><circle r="5" cx="1099.13" cy="250.91" fill="#ffeb80"></circle><circle r="5" cx="1139.85" cy="346.73" fill="#ffeb80"></circle><circle r="5" cx="1145.03" cy="520.74" fill="#ffeb80"></circle><circle r="5" cx="1155.44" cy="680.04" fill="#ffeb80"></circle><circle r="5" cx="1244.07" cy="-47.77" fill="#ffeb80"></circle><circle r="5" cx="1264.65" cy="208.59" fill="#ffeb80"></circle><circle r="5" cx="1245.97" cy="385.22" fill="#ffeb80"></circle><circle r="5" cx="1272.32" cy="521.83" fill="#ffeb80"></circle><circle r="5" cx="1306.26" cy="643.49" fill="#ffeb80"></circle><circle r="5" cx="1408.09" cy="49.86" fill="#ffeb80"></circle><circle r="5" cx="1404.41" cy="220.23" fill="#ffeb80"></circle><circle r="5" cx="1418.47" cy="355.95" fill="#ffeb80"></circle><circle r="5" cx="1430.35" cy="528.52" fill="#ffeb80"></circle><circle r="5" cx="1410.19" cy="682.92" fill="#ffeb80"></circle><circle r="5" cx="1594.64" cy="56.05" fill="#ffeb80"></circle><circle r="5" cx="1555.18" cy="215.32" fill="#ffeb80"></circle><circle r="5" cx="1599.75" cy="358.92" fill="#ffeb80"></circle><circle r="5" cx="1553.75" cy="531.21" fill="#ffeb80"></circle></g><defs><mask id="SvgjsMask1004"><rect width="1440" height="560" fill="#ffffff"></rect></mask><radialGradient id="SvgjsRadialGradient1005"><stop stop-color="#ffffff" offset="0.1"></stop><stop stop-color="rgba(255, 215, 0, 1)" offset="0.2"></stop><stop stop-color="rgba(255, 215, 0, 0)" offset="1"></stop></radialGradient></defs></svg>